<svg width="260" height="190" xmlns="http://www.w3.org/2000/svg"><g fill="none" fill-rule="evenodd"><path d="M0 0h260v190H0z"/><path d="M191.464 150.132l-7.602-92.323c-.166-2.077-1.966-3.68-4.132-3.68h-20.721v-7.207c0-10.985-9.295-19.922-20.72-19.922h-16.577c-11.426 0-20.721 8.937-20.721 19.922v7.206H80.27c-2.167 0-3.968 1.604-4.133 3.68l-7.602 92.322c-.265 3.31.929 6.603 3.274 9.038 2.345 2.435 5.67 3.832 9.122 3.832h98.135c3.452 0 6.777-1.396 9.123-3.831 2.345-2.435 3.538-5.73 3.274-9.037zM110 49.875c0-8.478 5.585-15.375 12.45-15.375h16.6c6.865 0 12.45 6.897 12.45 15.375V55H110v-5.125z" fill="#D9D9D9" fill-rule="nonzero"/></g></svg>